<?xml version="1.0" encoding="UTF-8"?>
<svg id="_레이어_2" data-name="레이어 2" xmlns="http://www.w3.org/2000/svg" viewBox="0 0 582.37 611.8">
  <defs>
    <style>
      .cls-1 {
        stroke-linecap: round;
      }

      .cls-1, .cls-2 {
        stroke-miterlimit: 10;
      }

      .cls-1, .cls-2, .cls-3 {
        fill: none;
        stroke: #82dce1;
        stroke-width: 12px;
      }

      .cls-3 {
        stroke-linejoin: round;
      }

      .cls-4 {
        fill: #82dce1;
      }

      .cls-4, .cls-5 {
        stroke-width: 0px;
      }

      .cls-5 {
        fill: #fff;
      }
    </style>
  </defs>
  <g id="Logo">
    <g>
      <path class="cls-5" d="m575.37,350.87c.77-.02,1.25.82.85,1.47l-59.06,94.71c-.6.95-2.07.28-1.74-.8l21.96-70.68h-56.72c-.73,0-1.2-.78-.84-1.42l54.78-99.33c.52-.95,1.97-.44,1.79.63l-13.45,76.84,52.43-1.42Z"/>
      <path class="cls-5" d="m276.64,99.78c-2.2-4.52-3.6-9.61-3.81-15.31-1.37-36.51,40.25-78.47,68.91-78.47s45.2,24.82,39.84,88.81c-.14,1.67,1.06,3.1,2.71,3.44,80.3,16.56,117.31,70.44,133.34,105.7,4.94,10.86,4.05,23.13.66,34.57-3.28,11.02-14.25,30.55-51.53,33.75-10.65.91-31.92.25-44.1-1.87-18.93-3.31-43.73-6.81-73.62-23.49-2.24-1.26-4.76-1.47-5.59.95-3.36,9.79-10.54,28.07-25.29,27.98-20.81-.12-24.75-10.07-26.24-18.99s0-30.73-12.14-40.64c-11.73-9.57-66.23-36.26-131.57-49.9-2.72-.57-3.51-4.07-1.29-5.74,18.34-13.73,77.79-55.57,127.41-60.33l2.31-.46h0Zm177.58,96.29c0-8.71-7.07-15.78-15.78-15.78s-15.78,7.07-15.78,15.78,7.07,15.78,15.78,15.78,15.78-7.07,15.78-15.78Z"/>
      <path class="cls-5" d="m507.65,484.09c.83-.94,2.33-.01,1.87,1.15-9.52,23.96-68.83,129.41-203.1,119.96-169.45-11.92-246.27-178.6-247.73-239.73-.02-.84.9-1.5,1.6-1.03,21.45,14.29,149.98,75.57,201.45,87.83,13.44,3.2,26.28,4.65,38.71-1.39,19.75-9.6,30.63-23.71,47.59-9.59,16.53,13.77.16,32.12-22.45,46.84-18.7,12.17-70.21,35.96-135.33,17.17-1.05-.3-1.87.93-1.18,1.77,59.27,72.92,188.81,123.68,318.57-22.98h0Z"/>
      <path class="cls-4" d="m357.42,274.03c17.24,15.52,71.1,50.19,62.11,113.13-7.38,38.79-31.64,52.97-41.94,58.03-4.19,2.06-4.7-3.39-4.7-3.39,0,0-12.77-27.41-42.05-24.17-29.31,3.24-31.89,21.96-56.17,19.23-24.25-2.72-245.78-88.76-268.1-140.77-15.19-35.42-3.89-85.71,32.27-106.8,19.12-11.15,48.51-15.58,68.87-12.9,62.91,8.26,149.42,39.65,160.16,56.3,7.4,11.49-6.04,61.23,49.53,62.04,17.94.27,27.66-8.51,34.92-19.99,1.17-1.84,3.48-2.16,5.1-.71h0Z"/>
    </g>
    <g>
      <path class="cls-3" d="m534.6,274.82l-54.78,99.33c-.36.64.11,1.42.84,1.42h56.72l-21.96,70.68c-.33,1.08,1.14,1.75,1.74.8l59.06-94.71c.4-.65-.08-1.49-.85-1.47l-52.43,1.42,13.45-76.84c.18-1.07-1.27-1.58-1.79-.63h0Z"/>
      <path class="cls-2" d="m58.69,365.47c-.02-.84.9-1.5,1.6-1.03,21.45,14.29,149.98,75.57,201.45,87.83,13.44,3.2,26.28,4.65,38.71-1.39,19.75-9.6,30.63-23.71,47.59-9.59,16.53,13.77.16,32.12-22.45,46.84-18.7,12.17-70.21,35.96-135.33,17.17-1.05-.3-1.87.93-1.18,1.77,59.27,72.92,188.81,123.68,318.57-22.98.83-.94,2.33-.01,1.87,1.15-9.52,23.96-68.83,129.41-203.1,119.96-169.45-11.92-246.27-178.6-247.73-239.73h0Z"/>
      <path class="cls-1" d="m324,132.23s-35.46-8.01-47.36-32.45c-2.2-4.52-3.6-9.61-3.81-15.31-1.37-36.51,40.25-78.47,68.91-78.47s45.2,24.82,39.84,88.81c-.14,1.67,1.06,3.1,2.71,3.44,80.3,16.56,117.31,70.44,133.34,105.7,4.94,10.86,4.05,23.13.66,34.57-3.28,11.02-14.25,30.55-51.53,33.75-10.65.91-31.92.25-44.1-1.87-18.93-3.31-43.73-6.81-73.62-23.49-2.24-1.26-4.76-1.47-5.59.95-3.36,9.79-10.54,28.07-25.29,27.98-20.81-.12-24.75-10.07-26.24-18.99s0-30.73-12.14-40.64c-11.73-9.57-66.23-36.26-131.57-49.9-2.72-.57-3.51-4.07-1.29-5.74,18.34-13.73,77.79-55.57,127.41-60.33"/>
      <circle class="cls-1" cx="438.44" cy="196.07" r="15.78"/>
    </g>
  </g>
</svg>